<svg width="1452" height="813" viewBox="0 0 1452 813" fill="none" xmlns="http://www.w3.org/2000/svg">
<path d="M784.375 773.146C822.44 764.154 857.51 749.095 899.263 747.105C942.159 745.061 983.173 756.817 1025.2 761.67C1073.02 767.192 1128.2 792.445 1168.53 778.199C1217.64 760.854 1174.86 708.393 1224.34 691.329C1268.97 675.939 1337.53 718.04 1383.79 703.966C1426.59 690.946 1385.95 646.834 1424.19 630.529C1464.97 613.142 1539.35 635.754 1581.9 619.507C1617.69 605.841 1612.2 576.552 1623.42 554.451C1634.19 533.232 1637.9 511.277 1647.65 489.93C1656.73 470.055 1660.11 448.765 1679.81 431.012C1702.44 410.615 1765.95 401.821 1771.24 378.53C1776.83 353.924 1710.78 336.67 1706.85 311.98C1703.43 290.429 1740.1 272.127 1751.01 251.237C1762.16 229.895 1778.81 207.833 1772.68 185.966C1766.66 164.457 1729.16 148.274 1716.35 127.556C1703.49 106.747 1722.39 80.329 1696.61 62.9323C1667.38 43.21 1607.02 43.051 1568.7 27.9325C1537.95 15.7993 1517.71 -1.9624 1493.14 -17.343C1468.52 -32.7529 1432.12 -45.2149 1421.31 -64.3265C1404.02 -94.9109 1441.95 -131.539 1412.66 -159.639C1391.61 -179.839 1331.91 -179.28 1291.38 -189.01C1251.47 -198.588 1211.15 -207.563 1171.59 -217.505C1131.08 -227.686 1095.65 -244.616 1051.46 -249.304C1006.67 -254.055 960.333 -243.493 914.661 -244.761C870.559 -245.985 828.493 -255.655 784.375 -256.717C740.278 -257.779 686.799 -265.297 652.529 -251.074C602.221 -230.196 622.738 -172.576 560.292 -163.718C499.185 -155.05 459.728 -224.477 399.014 -215.114C342.614 -206.417 376.12 -154.054 340.961 -129.896C317.667 -113.89 274.83 -106.226 236.232 -103.263C179.877 -98.9361 114.067 -124.235 65.7789 -108.769C24.7305 -95.6213 59.1641 -56.4201 29.2185 -36.9591C-0.0297546 -17.9512 -70.501 -23.5863 -96.4229 -3.35681C-122.1 16.682 -104.508 44.3317 -105.632 68.2782C-106.676 90.5315 -79.3816 116.246 -102.915 134.977C-133.838 159.589 -242.753 152.54 -248.09 181.661C-253.894 213.331 -124.123 221.285 -124.564 253.092C-124.978 282.955 -252.983 285.753 -249.947 315.576C-246.939 345.115 -134.308 342.338 -112.683 369.775C-95.2719 391.865 -144.154 414.707 -153.42 438.046C-163.024 462.237 -186.102 488.513 -168.987 511.595C-152.683 533.584 -100.966 543.234 -64.6982 557.704C-30.3043 571.427 9.23456 581.551 42.5067 595.977C73.25 609.308 98.4453 625.574 126.245 640.497C154.457 655.641 179.574 672.325 210.374 686.089C241.341 699.927 278.987 709.335 310.512 722.84C344.593 737.44 366.654 759.999 406.489 770.102C445.16 779.911 492.867 773.853 534.519 779.656C576.473 785.501 611.808 805.889 655.236 804.757C702.951 803.514 741.009 783.392 784.375 773.146Z" fill="#95B0F8" stroke="#93B7FF" stroke-width="15.6863"/>
</svg>
